<svg xmlns="http://www.w3.org/2000/svg" width="109" height="109" viewBox="0 0 109 109"><g transform="translate(-1424 -3199)"><g transform="translate(7 77)"><path d="M54.5,1A53.514,53.514,0,0,0,33.676,103.8,53.514,53.514,0,0,0,75.324,5.2,53.164,53.164,0,0,0,54.5,1m0-1A54.5,54.5,0,1,1,0,54.5,54.5,54.5,0,0,1,54.5,0Z" transform="translate(1417 3122)" fill="#8c361e"/><path d="M4.12,16.838c0,.144.036.162.108.162h4.95c3.744,0,5.994-2.7,5.994-6.588,0-3.924-2.448-6.642-5.994-6.642H4.264c-.072,0-.108.018-.108.162s.036.162.108.162H5.308c.27,0,.306.036.306.306V16.37c0,.27-.036.306-.306.306H4.228C4.156,16.676,4.12,16.694,4.12,16.838Zm9.774-6.426c0,2.916-.846,4.266-1.728,5.148a3.864,3.864,0,0,1-2.988,1.116H7.072c-.27,0-.306-.036-.306-.306V4.4c0-.27.036-.306.306-.306H9.178A3.864,3.864,0,0,1,12.166,5.21C13.048,6.092,13.894,7.568,13.894,10.412Zm4.518,6.426c0,.144.036.162.108.162h4.05c.072,0,.108-.018.108-.162s-.036-.162-.108-.162H21.364c-.27,0-.306-.036-.306-.306V10.16h2.736a2.268,2.268,0,0,1,2.43,2.43v2.952c0,1.152.576,1.674,1.6,1.674a2.443,2.443,0,0,0,1.458-.486c.072-.054-.072-.27-.162-.216a1.484,1.484,0,0,1-.9.252.78.78,0,0,1-.846-.864V13.256c0-1.638-.7-2.754-2.754-3.276V9.908a3.185,3.185,0,0,0,2.664-3.042c0-1.746-1.4-3.1-3.852-3.1h-4.86c-.072,0-.108.018-.108.162s.036.162.108.162H19.6c.27,0,.306.036.306.306V16.37c0,.27-.036.306-.306.306H18.52C18.448,16.676,18.412,16.694,18.412,16.838Zm7.614-9.972a3.267,3.267,0,0,1-.738,2.25,2.578,2.578,0,0,1-1.926.72h-2.3V4.4c0-.27.036-.306.306-.306h2.052a2.6,2.6,0,0,1,1.908.666A2.961,2.961,0,0,1,26.026,6.866Zm4.86,9.972c0,.144.036.162.108.162h3.69c.072,0,.108-.018.108-.162q0-.162-.108-.162c-1.944,0-2.016-.09-1.152-2.754l.612-1.89H38.7L40.12,16.37c.09.27.072.306-.2.306H38.536c-.072,0-.108.018-.108.162s.036.162.108.162h4c.072,0,.108-.018.108-.162s-.036-.162-.108-.162h-.81c-.27,0-.306-.036-.4-.306L37.168,3.788c-.036-.108-.072-.144-.18-.144H36.7a.211.211,0,0,0-.2.144L33.172,13.9c-.882,2.682-.99,2.772-2.142,2.772C30.922,16.676,30.886,16.73,30.886,16.838ZM36.394,5.12h.072c.162.576.756,2.412.954,2.988l1.17,3.6H34.234Zm8.172,5.292c0,3.96,2.448,6.8,5.22,6.8a4.831,4.831,0,0,0,2.538-.72,2.74,2.74,0,0,1,.99-.468c.288,0,.378.216.486.846.018.144.054.18.18.18.144,0,.162-.054.162-.2V12c0-.27.036-.306.306-.306h.81c.072,0,.108-.018.108-.162s-.036-.162-.108-.162H51.442c-.072,0-.108.018-.108.162s.036.162.108.162h1.242c.27,0,.306.036.306.306v2.34c0,1.692-1.566,2.556-3.2,2.556a3.264,3.264,0,0,1-2.232-.954c-.99-.99-1.71-2.9-1.71-5.526s.7-4.518,1.71-5.526a3.264,3.264,0,0,1,2.232-.954c2.07,0,3.384,1.044,3.744,4.1,0,.072.072.108.162.108s.162-.054.162-.108V3.968c0-.144-.018-.2-.162-.2-.126,0-.162.036-.18.18-.09.54-.2.738-.45.738-.234,0-.468-.18-.864-.4a4.863,4.863,0,0,0-2.412-.684C47.014,3.608,44.566,6.452,44.566,10.412Z" transform="translate(1442 3166)" fill="#8c361e"/></g></g></svg>