<svg xmlns="http://www.w3.org/2000/svg" width="22.539" height="22.534" viewBox="0 0 22.539 22.534"><path d="M11.267,7.727A5.777,5.777,0,1,0,17.044,13.5,5.768,5.768,0,0,0,11.267,7.727Zm0,9.534A3.756,3.756,0,1,1,15.023,13.5,3.763,3.763,0,0,1,11.267,17.261Zm7.361-9.77a1.348,1.348,0,1,1-1.348-1.348A1.344,1.344,0,0,1,18.628,7.491Zm3.826,1.368a6.669,6.669,0,0,0-1.82-4.722,6.713,6.713,0,0,0-4.722-1.82c-1.86-.106-7.437-.106-9.3,0A6.7,6.7,0,0,0,1.894,4.132,6.691,6.691,0,0,0,.074,8.854c-.106,1.86-.106,7.437,0,9.3a6.669,6.669,0,0,0,1.82,4.722,6.721,6.721,0,0,0,4.722,1.82c1.86.106,7.437.106,9.3,0a6.669,6.669,0,0,0,4.722-1.82,6.713,6.713,0,0,0,1.82-4.722c.106-1.86.106-7.432,0-9.292Zm-2.4,11.288a3.8,3.8,0,0,1-2.142,2.142c-1.483.588-5,.453-6.642.453s-5.164.131-6.642-.453a3.8,3.8,0,0,1-2.142-2.142c-.588-1.483-.453-5-.453-6.642S1.9,8.341,2.482,6.862A3.8,3.8,0,0,1,4.624,4.72c1.483-.588,5-.453,6.642-.453s5.164-.131,6.642.453a3.8,3.8,0,0,1,2.142,2.142c.588,1.483.453,5,.453,6.642S20.639,18.669,20.051,20.147Z" transform="translate(0.005 -2.238)" fill="#fff"/></svg>