<?xml version="1.0" encoding="UTF-8"?><svg id="Layer_1" xmlns="http://www.w3.org/2000/svg" viewBox="0 0 100 100"><defs><style>.cls-1{fill:#fff;}</style></defs><path class="cls-1" d="M79.8,30.02h-11.94c-2.84-12.39-9.68-20.93-17.86-20.93s-15.03,8.54-17.86,20.93h-11.94l-4.15,57.88H83.95l-4.15-57.88ZM50,11.1c7.18,0,13.2,7.68,15.84,18.93h-31.67c2.64-11.24,8.66-18.93,15.84-18.93Zm-27.94,20.93h9.66c-.58,3.08-.92,6.37-.98,9.81-.31,.27-.5,.66-.5,1.11,0,.82,.67,1.49,1.49,1.49s1.49-.67,1.49-1.49c0-.43-.18-.81-.47-1.08,.06-3.46,.4-6.76,.99-9.83h32.53c.59,3.07,.93,6.38,.99,9.83-.29,.27-.47,.65-.47,1.08,0,.82,.67,1.49,1.49,1.49s1.49-.67,1.49-1.49c0-.44-.2-.83-.5-1.11-.06-3.44-.4-6.73-.98-9.81h9.66l3.86,53.88H18.2l3.86-53.88Z"/></svg>