<?xml version="1.0" encoding="UTF-8"?><svg id="Layer_1" xmlns="http://www.w3.org/2000/svg" viewBox="0 0 100 100"><defs><style>.cls-1{fill:#fff;}</style></defs><path class="cls-1" d="M50,96.8c-25.81,0-46.8-21-46.8-46.8S24.19,3.2,50,3.2s46.8,21,46.8,46.8-21,46.8-46.8,46.8Zm0-91.61C25.29,5.2,5.19,25.29,5.19,50s20.1,44.8,44.8,44.8,44.8-20.1,44.8-44.8S74.7,5.2,50,5.2Z"/><path class="cls-1" d="M78.2,43.11c-.16,0-.32-.04-.47-.12-10.5-5.67-22.79-8.66-35.53-8.66-6.84,0-13.56,.86-19.99,2.56-.54,.14-1.08-.18-1.22-.71-.14-.53,.18-1.08,.71-1.22,6.59-1.74,13.49-2.63,20.5-2.63,13.07,0,25.68,3.08,36.48,8.9,.49,.26,.67,.87,.41,1.35-.18,.33-.53,.52-.88,.52Z"/><path class="cls-1" d="M73.55,59.89c-.16,0-.32-.04-.46-.12-9.17-4.83-19.85-7.38-30.89-7.38-5.71,0-11.34,.68-16.73,2.02-.54,.13-1.08-.19-1.21-.73-.13-.54,.19-1.08,.73-1.21,5.56-1.38,11.35-2.08,17.22-2.08,11.36,0,22.37,2.63,31.82,7.61,.49,.26,.68,.86,.42,1.35-.18,.34-.53,.53-.89,.53Z"/><path class="cls-1" d="M66.76,76.18c-.19,0-.38-.05-.55-.17-6.73-4.43-15.25-6.87-24.01-6.87-5.11,0-10.06,.8-14.72,2.37-.53,.18-1.09-.1-1.27-.63-.18-.52,.1-1.09,.63-1.27,4.87-1.64,10.03-2.48,15.36-2.48,9.14,0,18.06,2.56,25.11,7.2,.46,.3,.59,.92,.29,1.38-.19,.29-.51,.45-.84,.45Z"/></svg>