<?xml version="1.0" encoding="UTF-8"?><svg id="Layer_1" xmlns="http://www.w3.org/2000/svg" viewBox="0 0 100 100"><defs><style>.cls-1{fill:#fff;}</style></defs><path class="cls-1" d="M50,71.17c-11.67,0-21.17-9.5-21.17-21.17s9.49-21.17,21.17-21.17,21.17,9.49,21.17,21.17-9.5,21.17-21.17,21.17Zm0-40.33c-10.57,0-19.17,8.6-19.17,19.17s8.6,19.17,19.17,19.17,19.17-8.6,19.17-19.17-8.6-19.17-19.17-19.17Z"/><circle class="cls-1" cx="74.54" cy="26.12" r="4.38"/><path class="cls-1" d="M73.53,92.53H26.47c-10.48,0-19-8.52-19-19V26.47C7.47,15.99,15.99,7.47,26.47,7.47h47.07c10.48,0,19,8.52,19,19v47.07c0,10.48-8.52,19-19,19ZM26.47,9.47c-9.37,0-17,7.63-17,17v47.07c0,9.37,7.63,17,17,17h47.07c9.37,0,17-7.63,17-17V26.47c0-9.37-7.63-17-17-17H26.47Z"/></svg>