<?xml version="1.0" encoding="UTF-8"?><svg id="Layer_1" xmlns="http://www.w3.org/2000/svg" viewBox="0 0 100 100"><defs><style>.cls-1{fill:#fff;}</style></defs><path class="cls-1" d="M49.99,88.66l-.7-.73c-.07-.08-7.33-7.59-14.48-17.56-9.67-13.49-14.57-24.82-14.57-33.7,0-16.42,13.36-29.77,29.77-29.77s29.77,13.36,29.77,29.77c0,22.18-27.88,50.1-29.07,51.28l-.72,.71Zm.01-79.76c-15.31,0-27.77,12.46-27.77,27.77,0,18.43,23.39,44.41,27.79,49.12,4.42-4.59,27.76-29.7,27.76-49.12,0-15.31-12.46-27.77-27.77-27.77Z"/><path class="cls-1" d="M50,45.97c-6.15,0-11.16-5.01-11.16-11.16s5-11.16,11.16-11.16,11.16,5.01,11.16,11.16-5.01,11.16-11.16,11.16Zm0-20.32c-5.05,0-9.16,4.11-9.16,9.16s4.11,9.16,9.16,9.16,9.16-4.11,9.16-9.16-4.11-9.16-9.16-9.16Z"/></svg>